<svg width="385" height="158" viewBox="0 0 385 158" fill="none" xmlns="http://www.w3.org/2000/svg">
<path d="M371.463 58.0382C369.326 60.1754 366.769 61.244 363.792 61.244C360.816 61.244 358.22 60.1754 356.007 58.0382C353.87 55.8246 352.801 53.2295 352.801 50.2526C352.801 47.2758 353.87 44.7188 356.007 42.5816C358.22 40.4443 360.816 39.3757 363.792 39.3757C366.769 39.3757 369.326 40.4443 371.463 42.5816C373.677 44.7188 374.784 47.2758 374.784 50.2526C374.784 53.2295 373.677 55.8246 371.463 58.0382ZM354.289 123.185V65.9382H373.295V123.185H354.289Z" fill="white"/>
<path d="M324.324 123.185V39.6047H343.33V123.185H324.324Z" fill="white"/>
<path d="M318.829 123.185H297.534L281.275 98.7979V123.185H262.27V43.0396H281.275V89.8674L296.045 65.9383H318.028L298.793 94.5617L318.829 123.185Z" fill="white"/>
<path d="M232.245 65.9382H251.251V123.185H232.245V117.918C228.353 122.498 222.933 124.788 215.987 124.788C208.354 124.788 201.943 121.926 196.752 116.201C191.638 110.4 189.081 103.187 189.081 94.5616C189.081 85.9364 191.638 78.7615 196.752 73.0368C201.943 67.2358 208.354 64.3353 215.987 64.3353C222.933 64.3353 228.353 66.6252 232.245 71.2049V65.9382ZM211.522 103.607C213.736 105.896 216.636 107.041 220.224 107.041C223.811 107.041 226.712 105.896 228.925 103.607C231.139 101.317 232.245 98.3018 232.245 94.5616C232.245 90.8215 231.139 87.8065 228.925 85.5166C226.712 83.2268 223.811 82.0818 220.224 82.0818C216.636 82.0818 213.736 83.2268 211.522 85.5166C209.309 87.8065 208.202 90.8215 208.202 94.5616C208.202 98.3018 209.309 101.317 211.522 103.607Z" fill="white"/>
<rect x="114.568" y="31.5005" width="21.6566" height="92.5329" fill="white"/>
<rect x="140.162" y="31.5005" width="33.4694" height="19.6879" fill="white"/>
<rect x="94.8799" y="31.5005" width="15.7503" height="19.6879" fill="white"/>
<rect x="142.131" y="64.9699" width="19.6879" height="59.0636" fill="#FF9500"/>
<path d="M182.742 63.201L183.475 63.0012V83.6734C177.836 83.6734 172.461 86.0669 168.689 90.2587L165.756 93.5173V73.8295C170.25 68.6936 176.158 64.9966 182.742 63.201Z" fill="white"/>
<path d="M62.9889 37.7565C67.4288 37.7565 71.8701 37.7538 76.3099 37.7591C79.6486 37.7632 81.9057 39.9107 81.9057 43.0977C81.9085 69.0664 81.9085 95.0338 81.9057 121.002C81.9057 124.164 79.6795 126.32 76.3773 126.321C55.4839 126.329 34.5906 126.332 13.6973 126.324C10.3264 126.324 8.12395 124.195 8.12395 120.984C8.11974 95.0593 8.13377 69.1362 8.1001 43.2131C8.0959 40.3922 9.99529 38.3332 12.3366 37.8584C12.8935 37.7457 13.4518 37.7578 14.0101 37.7578C18.4977 37.7538 22.9852 37.7565 27.4728 37.7578C27.484 38.1817 27.4826 38.6069 27.5079 39.0294C27.6047 40.6766 28.0774 41.1273 29.7846 41.1273C40.0615 41.1327 50.3399 41.13 60.6168 41.13C60.8034 41.13 60.9913 41.1353 61.1779 41.1233C62.31 41.0535 62.7617 40.631 62.8529 39.5552C62.9034 38.9556 62.944 38.356 62.9903 37.7565H62.9889ZM45.3712 119.974C46.8525 118.463 48.317 116.99 49.7549 115.495C50.0916 115.145 50.2894 115.066 50.6737 115.471C51.9769 116.844 53.3489 118.157 54.6437 119.536C55.021 119.939 55.1922 119.895 55.5345 119.536C56.8573 118.151 58.2208 116.799 59.5451 115.414C59.8593 115.086 60.022 115.091 60.3404 115.425C61.6633 116.811 63.0352 118.153 64.3623 119.536C64.6976 119.885 64.8911 119.9 65.232 119.542C66.5549 118.156 67.917 116.804 69.2468 115.424C69.54 115.119 69.7154 115.048 70.0464 115.405C71.0074 116.441 72.0076 117.444 73.0078 118.446C73.4623 118.902 73.8705 119.409 74.4891 119.842C74.4891 119.524 74.4891 119.304 74.4891 119.084C74.4891 104.044 74.4891 89.003 74.4891 73.9624C74.4891 66.9444 74.4498 59.9278 74.5087 52.9098C74.534 49.9159 72.0552 47.8099 69.3927 47.8166C53.3825 47.8502 37.3738 47.8327 21.3636 47.8354C20.968 47.8354 20.5738 47.8314 20.181 47.9266C17.6883 48.5249 16.2448 50.3558 16.2448 52.9567C16.2434 74.9926 16.2434 97.0284 16.2434 119.064C16.2434 119.298 16.2434 119.531 16.2434 119.764C16.3121 119.798 16.3794 119.831 16.4482 119.865C16.5983 119.672 16.7315 119.464 16.9013 119.29C18.1596 117.998 19.4319 116.72 20.6818 115.421C20.968 115.123 21.1462 115.095 21.4506 115.41C22.7804 116.791 24.1482 118.137 25.471 119.523C25.8035 119.872 25.9746 119.975 26.3618 119.563C27.6594 118.186 29.0187 116.862 30.3247 115.491C30.6754 115.123 30.883 115.09 31.2491 115.475C32.5706 116.863 33.9341 118.212 35.2598 119.595C35.5684 119.917 35.7409 119.923 36.0551 119.593C37.3611 118.222 38.7092 116.889 40.0181 115.519C40.3772 115.143 40.5904 115.084 40.9874 115.503C42.4154 117.007 43.8884 118.471 45.3697 119.978L45.3712 119.974Z" fill="white"/>
<path d="M62.9892 37.7565C62.9443 38.356 62.9022 38.957 62.8517 39.5552C62.7606 40.631 62.3089 41.0535 61.1768 41.1233C60.9902 41.1353 60.8036 41.13 60.6157 41.13C50.3387 41.13 40.0604 41.1327 29.7835 41.1273C28.0749 41.1273 27.6035 40.6766 27.5067 39.0294C27.4815 38.6069 27.4829 38.1817 27.4717 37.7578C27.5657 36.8269 27.4296 35.8893 27.6246 34.957C28.0566 32.89 29.9322 31.3635 32.1318 31.3488C33.2063 31.3407 34.2809 31.322 35.354 31.3555C35.9236 31.3729 36.1564 31.2764 36.2658 30.6392C36.8999 26.9491 40.0997 24.0853 44.0135 23.6923C48.0382 23.2872 51.1636 24.7198 53.2776 28.0544C53.8289 28.9236 54.1039 29.8988 54.2442 30.8954C54.3003 31.2925 54.477 31.3555 54.8305 31.3515C55.9051 31.3381 56.9782 31.3474 58.0528 31.3461C60.8962 31.3461 62.905 33.2334 62.9541 35.951C62.9654 36.5533 62.9766 37.1555 62.9864 37.7578L62.9892 37.7565ZM45.1835 31.3448C46.6774 31.3448 48.17 31.3474 49.664 31.3448C50.4482 31.3434 50.4608 31.322 50.2153 30.5842C49.7608 29.2201 48.7873 28.3066 47.449 27.7365C44.5971 26.5226 41.271 27.8331 40.2428 30.5587C39.972 31.279 40.0211 31.3448 40.8418 31.3461C42.2881 31.3474 43.7358 31.3461 45.1821 31.3461L45.1835 31.3448Z" fill="#FF9500"/>
<path d="M69.9338 97.1574C69.9338 95.736 69.5723 94.3359 68.8804 93.0779C68.1885 91.8198 67.187 90.7415 65.9622 89.936C64.7374 89.1305 63.3262 88.6218 61.8501 88.454C60.3739 88.2861 58.8773 88.464 57.4891 88.9724C56.1009 89.4808 54.8629 90.3044 53.8817 91.3722C52.9005 92.44 52.2056 93.72 51.857 95.1017C51.5083 96.4835 51.5164 97.9256 51.8804 99.3037C52.2444 100.682 52.9535 101.955 53.9465 103.012L56.8227 100.544C56.2484 99.9319 55.8383 99.1957 55.6277 98.3987C55.4172 97.6017 55.4126 96.7676 55.6142 95.9685C55.8158 95.1694 56.2177 94.4291 56.7852 93.8116C57.3526 93.194 58.0686 92.7177 58.8715 92.4237C59.6743 92.1297 60.5399 92.0268 61.3936 92.1238C62.2473 92.2209 63.0635 92.5151 63.7718 92.981C64.4802 93.4468 65.0594 94.0704 65.4595 94.798C65.8597 95.5256 66.0688 96.3353 66.0688 97.1574H69.9338Z" fill="#FF9500"/>
<path d="M60.7676 105.922C62.4788 105.922 64.1558 105.464 65.6089 104.6C67.0619 103.736 68.233 102.5 68.9895 101.032L65.5226 99.3983C65.0851 100.247 64.4079 100.962 63.5675 101.462C62.7271 101.962 61.7572 102.226 60.7676 102.226V105.922Z" fill="white"/>
<path d="M43.7646 57.8023C50.5918 57.8023 57.4204 57.8077 64.2476 57.7903C64.7854 57.789 64.9851 57.9091 64.9599 58.4819C64.9132 59.5246 64.9199 60.5727 64.9599 61.6154C64.9785 62.1281 64.8027 62.2456 64.3168 62.2443C59.5066 62.2282 54.6951 62.2362 49.8849 62.2362C40.9954 62.2362 32.1059 62.2282 23.2164 62.2469C22.5933 62.2483 22.3577 62.1161 22.3976 61.4512C22.4562 60.4539 22.4455 59.4498 22.4016 58.4512C22.3776 57.9024 22.5773 57.793 23.0819 57.7943C29.9757 57.809 36.8708 57.805 43.7646 57.805V57.8023Z" fill="white"/>
<path d="M38.2827 73.9852C33.2382 73.9852 28.1937 73.9731 23.1507 73.9999C22.5166 74.0026 22.3567 73.8269 22.3861 73.2474C22.4352 72.2455 22.4324 71.2367 22.3861 70.2334C22.3595 69.6767 22.5334 69.5212 23.1212 69.5238C28.6791 69.5453 34.237 69.5359 39.7949 69.5359C44.3961 69.5359 48.9959 69.548 53.5957 69.5238C54.1933 69.5212 54.3462 69.6915 54.3237 70.2388C54.2802 71.2649 54.2844 72.2937 54.3251 73.3199C54.3462 73.8444 54.1876 74.0013 53.6251 73.9999C48.5105 73.9798 43.3973 73.9879 38.2827 73.9879V73.9852Z" fill="white"/>
<path d="M33.8724 81.0648C37.4243 81.0648 40.9776 81.0755 44.5295 81.0541C45.0864 81.05 45.3179 81.1587 45.2884 81.7435C45.2379 82.7911 45.2547 83.8441 45.2814 84.893C45.2926 85.3424 45.1692 85.5168 44.6585 85.5168C37.4369 85.5033 30.2167 85.5047 22.9951 85.5168C22.5476 85.5168 22.3764 85.4068 22.3891 84.9534C22.4199 83.9045 22.4312 82.8515 22.3835 81.8039C22.3582 81.2298 22.5097 81.0447 23.1466 81.05C26.7223 81.0822 30.2981 81.0648 33.8738 81.0648H33.8724Z" fill="white"/>
<path fill-rule="evenodd" clip-rule="evenodd" d="M61.5438 55.1163L70.5547 60.1672L61.5438 65.2181L61.5438 61.042L61.5438 59.2924L61.5438 55.1163Z" fill="white"/>
</svg>
