<svg width="249" height="80" viewBox="0 0 249 80" fill="none" xmlns="http://www.w3.org/2000/svg">
<path d="M239.435 27.6618C238.35 28.7473 237.051 29.2901 235.539 29.2901C234.027 29.2901 232.709 28.7473 231.584 27.6618C230.499 26.5375 229.956 25.2193 229.956 23.7073C229.956 22.1953 230.499 20.8965 231.584 19.8109C232.709 18.7254 234.027 18.1826 235.539 18.1826C237.051 18.1826 238.35 18.7254 239.435 19.8109C240.56 20.8965 241.122 22.1953 241.122 23.7073C241.122 25.2193 240.56 26.5375 239.435 27.6618ZM230.712 60.7516V31.6744H240.366V60.7516H230.712Z" fill="#01190E"/>
<path d="M215.492 60.7517V18.299H225.146V60.7517H215.492Z" fill="#01190E"/>
<path d="M212.701 60.7517H201.884L193.626 48.3648V60.7517H183.973V20.0436H193.626V43.8287L201.128 31.6745H212.294L202.524 46.2131L212.701 60.7517Z" fill="#01190E"/>
<path d="M168.723 31.6744H178.377V60.7516H168.723V58.0765C166.746 60.4027 163.993 61.5658 160.465 61.5658C156.588 61.5658 153.332 60.1119 150.695 57.2042C148.098 54.2577 146.799 50.594 146.799 46.213C146.799 41.832 148.098 38.1877 150.695 35.28C153.332 32.3335 156.588 30.8602 160.465 30.8602C163.993 30.8602 166.746 32.0233 168.723 34.3495V31.6744ZM158.197 50.8072C159.321 51.9703 160.795 52.5518 162.617 52.5518C164.439 52.5518 165.912 51.9703 167.037 50.8072C168.161 49.6441 168.723 48.1127 168.723 46.213C168.723 44.3133 168.161 42.7819 167.037 41.6188C165.912 40.4557 164.439 39.8742 162.617 39.8742C160.795 39.8742 159.321 40.4557 158.197 41.6188C157.073 42.7819 156.511 44.3133 156.511 46.213C156.511 48.1127 157.073 49.6441 158.197 50.8072Z" fill="#01190E"/>
<path d="M136.551 37.0828C137.094 35.1831 138.179 33.7098 139.808 32.6631C141.436 31.6163 143.258 31.0929 145.274 31.0929V41.7933C143.064 41.4444 141.048 41.8515 139.226 43.0146C137.443 44.1776 136.551 46.0773 136.551 48.7137V60.7516H126.897V31.6744H136.551V37.0828Z" fill="#01190E"/>
<path d="M126.482 20.0436V30.1043H116.422V60.7517H106.012V30.1043H95.9512V20.0436H126.482Z" fill="#01190E"/>
<rect x="33.3691" y="12" width="14" height="56" fill="#047844"/>
<rect x="52.3691" y="12" width="23" height="11" fill="#047844"/>
<rect x="52.3691" y="28" width="23" height="40" fill="#FF9500"/>
<path fill-rule="evenodd" clip-rule="evenodd" d="M22.3691 56C19.0554 56 16.3691 58.6863 16.3691 62C16.3691 65.3137 19.0554 68 22.3691 68C25.6828 68 28.3691 65.3137 28.3691 62C28.3691 58.6863 25.6828 56 22.3691 56ZM22.3691 59C20.7123 59 19.3691 60.3431 19.3691 62C19.3691 63.6569 20.7123 65 22.3691 65C24.026 65 25.3691 63.6569 25.3691 62C25.3691 60.3431 24.026 59 22.3691 59Z" fill="#FF9500"/>
<rect x="16.3691" y="12" width="12" height="11" fill="#047844"/>
</svg>
